<?xml version="1.0" encoding="UTF-8"?>
<svg width="700pt" height="700pt" version="1.1" viewBox="0 0 700 700" xmlns="http://www.w3.org/2000/svg">
 <path d="m576.66 148.08 30.711-30.711c5.0078-5.0078 6.5117-12.527 3.793-19.074-2.6992-6.5312-9.0938-10.797-16.168-10.797h-52.5v-52.5c0-7.0742-4.2539-13.457-10.801-16.168-6.5469-2.707-14.066-1.2148-19.074 3.793l-30.695 30.703c-40.02-23.402-85.293-35.828-131.93-35.828-144.74 0-262.5 117.76-262.5 262.5s117.76 262.5 262.5 262.5c144.75 0 262.5-117.76 262.5-262.5 0-46.637-12.426-91.91-35.836-131.92zm-51.664-25.582h27.754l-17.5 17.5h-45.254v-45.254l17.5-17.5v27.754c0 9.6641 7.8281 17.5 17.5 17.5zm-122.5 157.5c0 28.949-23.551 52.5-52.5 52.5s-52.5-23.551-52.5-52.5 23.551-52.5 52.5-52.5c8.082 0 15.645 1.9844 22.492 5.2656l-34.863 34.863c-6.8359 6.8359-6.8359 17.91 0 24.746 3.418 3.418 7.8945 5.125 12.371 5.125s8.957-1.7109 12.375-5.1289l34.863-34.863c3.2812 6.8477 5.2617 14.41 5.2617 22.492zm-4.3242-72.922c-13.824-9.168-30.367-14.578-48.176-14.578-48.246 0-87.5 39.254-87.5 87.5s39.254 87.5 87.5 87.5 87.5-39.254 87.5-87.5c0-17.809-5.4023-34.344-14.578-48.176l37.531-37.531c18.438 23.715 29.547 53.406 29.547 85.707 0 77.195-62.805 140-140 140s-140-62.805-140-140 62.805-140 140-140c32.301 0 62.004 11.102 85.707 29.547zm-48.176 300.42c-125.45 0-227.5-102.05-227.5-227.5s102.05-227.5 227.5-227.5c37.668 0 74.309 9.3672 107.17 27.055-1.2812 2.4688-2.1719 5.1172-2.1719 7.9453v52.832c-29.293-22.07-65.59-35.332-105-35.332-96.496 0-175 78.504-175 175s78.504 175 175 175c96.488 0 175-78.504 175-175 0-39.418-13.262-75.707-35.344-105h52.844c2.8359 0 5.4844-0.89062 7.9648-2.1719 17.672 32.875 27.035 69.508 27.035 107.17 0 125.45-102.06 227.5-227.5 227.5z"/>
</svg>
